<svg width="1333" height="1117" viewBox="0 0 1333 1117" fill="none" xmlns="http://www.w3.org/2000/svg">
<path d="M599.121 178.477C462.906 147.243 508.957 46.4783 549.009 0H1333V1117H51.1358C15.3579 1060.21 66.0432 1033.17 95.8582 1026.75C64.8219 981.317 92.6252 951.368 110.406 942.073C20.3149 923.819 46.2863 841.172 70.5334 802.131C21.8237 786.717 16.7584 741 51.1358 718.47C34.0066 597.5 167.14 642.5 167.14 642.5C237.21 589.5 308.694 621.119 321.087 660.668C341.777 603.88 396.009 614.744 420.539 627.274C437.814 589.253 489.065 582.609 512.908 584.105C468.078 547.599 502.132 498.247 524.762 478.135C439.628 435.037 490.817 350.869 549.009 350.869C511.831 322.982 546.316 282.926 575.951 285.968C547.501 248.245 579.543 198.589 599.121 178.477Z" fill="white"/>
<path d="M420.539 627.274C437.814 589.253 489.065 582.609 512.908 584.105C468.078 547.599 502.132 498.247 524.762 478.135C439.628 435.037 490.817 350.869 549.009 350.869C511.831 322.982 546.316 282.926 575.951 285.968C547.501 248.245 579.543 198.589 599.121 178.477C462.906 147.243 508.957 46.4783 549.009 0H1333V1117H51.1358C15.3579 1060.21 66.0432 1033.17 95.8582 1026.75C64.8219 981.317 92.6252 951.368 110.406 942.073C20.3149 923.819 46.2863 841.172 70.5334 802.131C21.8237 786.717 16.7584 741 51.1358 718.47C34.0066 597.5 167.14 642.5 167.14 642.5C237.21 589.5 308.694 621.119 321.087 660.668C341.777 603.88 396.009 614.744 420.539 627.274ZM420.539 627.274C420.247 627.918 419.964 628.57 419.692 629.232C403.311 668.983 413.431 644.49 420.539 627.274Z" stroke="white" stroke-opacity="0.36" stroke-width="57"/>
</svg>
