<svg width="39" height="48" viewBox="0 0 39 48" fill="none" xmlns="http://www.w3.org/2000/svg">
<path d="M23.1934 47.4025C21.522 48.0745 20.3018 46.3059 19.7813 45.5891C17.2642 41.6517 14.631 37.9077 11.8784 33.9403L7.42946 27.5191C-0.232901 16.5255 -2.94242 10.5859 5.51784 3.56993L6.24861 2.98635C7.18426 2.27274 8.07719 1.73586 8.92741 1.37568C13.9263 -0.720378 17.1654 3.38698 20.553 7.66938L20.6571 7.81276C21.6384 9.13466 25.4167 14.4556 38.0759 32.3305C38.4479 32.8723 38.6885 33.5274 38.6644 34.2009C38.6557 34.9544 38.367 35.6463 37.7677 36.1165L34.6261 38.7091C34.3922 38.8875 34.1873 39.0176 34.0114 39.0993C32.311 39.8197 31.0021 37.9877 30.526 37.3025L29.886 36.3624C28.9781 35.0238 24.8432 29.2411 23.5052 27.4574C23.4762 27.5058 23.4028 27.5225 23.3737 27.5708L19.6909 30.5369C19.6311 30.4252 19.6465 30.5053 19.7949 30.6803L27.3379 41.4506C27.9778 42.3908 27.4465 44.0145 26.7892 44.5814L23.779 47.0607C23.6185 47.2224 23.4136 47.3525 23.1934 47.4025ZM9.48359 2.87765C8.73581 3.1728 7.94531 3.64469 7.18551 4.27659L6.45475 4.86014C-0.588356 10.6773 0.726797 15.1383 8.64174 26.4504L13.0753 32.7915C15.9167 36.8223 18.5209 40.6146 21.038 44.552C21.6626 45.4122 22.1984 46.209 22.8558 45.6421L25.8659 43.1628C25.9974 43.0495 26.199 42.5026 26.0949 42.3593L18.5963 31.6207C18.2687 31.1106 18.1032 30.6471 18.1733 30.2137C18.2144 29.8286 18.4466 29.4418 18.841 29.1017L22.5239 26.1355C23.2257 25.6003 23.7395 25.4836 24.3455 25.8469C24.4342 25.9103 24.523 25.9736 24.5827 26.0853C25.6527 27.4705 30.2194 33.9067 31.187 35.357L31.827 36.2971C32.3475 37.0139 32.9568 37.7941 33.5287 37.5806C33.6021 37.5639 33.7045 37.4989 33.807 37.4339L36.9486 34.8412C37.1091 34.6795 37.2253 34.4861 37.2236 34.2777C37.251 34.021 37.1162 33.7176 36.9523 33.4626C24.2932 15.5877 20.5149 10.2667 19.5336 8.94482L19.4295 8.80145C16.0863 4.55072 13.4564 1.22348 9.48359 2.87765ZM15.8632 24.5591C15.2622 24.8209 14.3063 24.8294 13.2653 23.3958L9.29243 17.6598C6.64389 13.8357 7.39208 11.7451 8.55999 10.6447C9.05685 10.2396 9.46659 9.97947 9.80295 9.73604C10.0078 9.60599 10.1393 9.49262 10.2708 9.37924C11.7904 8.11543 13.2258 9.20889 16.871 14.4348C17.615 15.5184 18.3898 16.7619 19.3574 18.2122L19.6697 18.6422C20.6833 20.3326 20.1761 21.2829 19.5477 21.8014L19.1533 22.1415C18.3491 22.7418 16.5803 24.104 16.4488 24.2173C16.1705 24.3641 16.039 24.4774 15.8632 24.5591ZM11.3545 10.6361C11.3545 10.6361 11.2811 10.6528 11.2521 10.7011C11.0916 10.8628 10.8867 10.9929 10.6084 11.1396C10.3011 11.3347 9.96472 11.5781 9.5703 11.9183C8.66534 12.7919 9.00129 14.3439 10.5491 16.6227L14.5219 22.3587C14.7745 22.6771 15.0714 23.0272 15.2917 22.9772C15.599 22.7821 17.3969 21.3715 18.172 20.8196L18.6689 20.4145C18.6689 20.4145 18.6672 20.2061 18.3686 19.6477L18.1007 19.2492C17.1775 17.8306 16.4027 16.5871 15.6297 15.5519C12.4299 10.851 11.5747 10.5861 11.3545 10.6361Z" fill="#89E219"/>
</svg>
