<svg width="31" height="46" viewBox="0 0 31 46" fill="none" xmlns="http://www.w3.org/2000/svg">
<path d="M17.3667 45.4483C15.2047 46.2648 14.2902 45.1258 13.9025 44.0847C4.56356 17.0925 2.04809 9.90803 1.20177 7.25887C0.88017 6.25219 0.761691 5.8813 0.707625 5.36734C0.52521 3.41746 4.32393 1.86413 5.50319 1.41879L5.84711 1.2889C13.3818 -1.4972 19.2919 1.31775 21.6124 8.75396L21.6802 8.96591C22.5975 12.182 22.1663 15.3136 20.4155 17.9342C22.9345 18.4079 27.5337 19.8773 29.5665 26.4128L29.7866 27.1016C30.7055 30.4952 32.8159 38.3076 25.9299 41.9175C23.8203 43.0705 19.6438 44.6477 17.3667 45.4483ZM6.01098 3.00828C4.2421 3.6763 2.39516 4.78943 2.21883 5.27165C2.28653 5.48358 2.38807 5.80148 2.64361 6.77373C3.47301 9.36991 5.93935 16.5729 15.2614 43.5121C15.4967 44.0764 15.7948 44.3201 16.8266 43.9304C19.0377 43.0954 23.1329 41.6082 25.1933 40.4738C30.9509 37.4682 29.2314 31.0519 28.2956 27.6053L28.0924 26.9695C26.0766 20.487 21.5009 19.7806 19.2952 19.426L18.8344 19.3626C18.538 19.2964 18.3059 19.0871 18.2213 18.8222C18.1367 18.5573 18.1994 18.2367 18.3943 17.985C20.4924 15.5895 21.1387 12.6142 20.2061 9.52259L20.1553 9.36363C18.1056 2.77516 13.0543 0.407751 6.30578 2.89695L6.01098 3.00828ZM20.4947 37.142L19.8559 37.3832C19.6594 37.4574 19.429 37.4257 19.2969 37.3568C19.2308 37.3224 19.1648 37.288 19.1648 37.288C19.1648 37.288 19.0987 37.2535 19.0157 37.1661C18.9327 37.0787 18.8497 36.9913 18.8159 36.8853L14.9851 26.1007C14.9343 25.9417 14.9327 25.7642 14.9479 25.6397C15.0413 25.0701 15.3022 24.8528 15.7445 24.6858C19.184 23.3868 21.6774 24.6421 23.1418 28.3641C23.394 28.9813 23.5802 29.5642 23.7326 30.041C25.3269 35.3764 22.755 36.2884 20.4947 37.142ZM19.9547 35.624C22.2641 34.7519 23.3942 34.3251 22.1755 30.5103C22.0401 30.0864 21.8539 29.5036 21.6355 28.9923C20.5249 26.2054 19.0208 25.2891 16.5624 26.0394L19.9547 35.624ZM12.7191 17.4564C12.0803 17.6976 11.6179 17.4566 11.4502 17.1043C11.0795 16.1161 9.40709 11.2258 9.08548 10.2191L8.88237 9.58334C8.73003 9.10649 8.45921 8.25876 9.44192 7.88764C11.7022 7.03406 14.7175 7.85469 15.9362 11.6695C16.8503 14.5306 14.881 16.6399 12.7191 17.4564ZM10.4089 9.36311L10.5274 9.73399C10.7813 10.5287 12.0152 14.219 12.5722 15.7899C13.6684 15.2572 15.1037 14.062 14.5451 12.3136C13.5295 9.13458 11.3763 9.11651 10.4089 9.36311Z" fill="#89E219"/>
</svg>
