<svg width="31" height="41" viewBox="0 0 31 41" fill="none" xmlns="http://www.w3.org/2000/svg">
<path d="M6.00435 37.9342C0.435305 33.2119 -0.036427 29.4345 0.60741 27.0989C1.689 22.7685 5.62046 15.7012 8.92575 9.95306C11.9649 4.68536 17.105 -4.08248 25.8039 3.24126C29.5847 6.41664 32.3434 12.3905 30.0528 17.0293L29.8867 17.2769C28.4902 19.6938 25.4207 18.3446 23.7045 16.9084L23.4482 16.6695C22.0363 15.082 22.4782 13.6346 22.7401 12.6066C23.1021 11.3457 23.15 10.9554 22.2689 10.2213C22.0386 10.0611 21.9004 9.96494 21.7162 9.83675C20.2424 8.81125 19.9503 9.21309 19.0659 10.7156L18.6937 11.3038C12.9815 21.1258 10.6406 25.185 8.6239 29.0463C8.54993 29.3579 8.88861 30.3802 9.58549 30.9862C10.1642 31.4494 10.6988 31.4583 11.183 30.8876C11.4412 30.7041 11.5273 30.643 11.6594 30.6139L11.7455 30.5528C12.6722 29.9269 13.771 29.1786 15.1387 30.3119C16.1119 31.1101 17.0414 32.8461 18.1635 35.8053C18.3398 36.2305 18.2719 36.6674 18.0398 36.9294C14.9462 41.07 11.7116 42.7526 6.00435 37.9342ZM25.0657 4.54291C18.221 -1.24849 14.1049 4.29852 10.1813 11.0688C6.93606 16.6772 3.04463 23.6513 2.02306 27.8419C1.15732 31.1123 4.12536 34.5088 6.76869 36.7112C11.5027 40.7314 13.9627 39.5991 16.7963 36.0642C15.8826 33.7341 15.1234 32.2981 14.4725 31.7242C14.032 31.3571 13.6817 31.4765 12.735 32.149L12.5829 32.2247C12.5829 32.2247 12.5629 32.2713 12.5168 32.2392C12.3647 32.3149 12.2986 32.3294 12.1925 32.4372C11.304 33.3922 9.99072 33.3861 8.85328 32.4131C7.62373 31.376 6.88634 29.4711 7.27432 28.2888C9.351 24.2877 11.7119 20.1819 17.4242 10.3599L17.7963 9.77172C18.5746 8.37689 19.5851 6.72002 22.3945 8.67488C22.5787 8.80307 22.6247 8.83512 22.7169 8.89921C22.809 8.96331 22.9011 9.02739 22.9932 9.09149C24.9657 10.7666 24.4837 12.3071 24.1618 13.4749C23.8539 14.4708 23.792 15.0329 24.2646 15.6038L24.4028 15.7C24.4489 15.732 27.4606 18.1908 28.5911 16.2543L28.6911 16.0214C30.6217 12.2212 28.2677 7.25508 25.0657 4.54291Z" fill="#89E219"/>
</svg>
