<svg width="20" height="18" viewBox="0 0 20 18" fill="none" xmlns="http://www.w3.org/2000/svg">
<path d="M19.1005 12.2519C16.1627 11.802 13.2292 11.0953 10.3195 10.3456C7.27152 9.57407 4.20168 8.72893 1.20599 7.5912C1.2482 7.83187 1.27868 8.0824 1.32089 8.32307C4.09445 6.83975 7.18165 5.94401 9.93295 4.41039C10.5975 4.03504 11.2512 3.62287 11.8595 3.15676C12.152 2.93357 12.4214 2.70675 12.6912 2.45659C12.8556 2.29519 13.0098 2.05028 13.2195 1.94281C13.8611 1.56383 14.5026 1.18485 15.1555 0.81936C14.9618 0.660199 14.7685 0.477701 14.5747 0.31854C13.7191 3.15641 12.3816 5.80153 11.1139 8.41083C9.82207 11.0865 8.42712 13.7109 7.28406 16.4685C7.52463 16.5883 7.75348 16.7178 7.99404 16.8375C8.45296 14.2416 7.98088 11.3706 7.47095 8.69265C6.93954 5.91768 6.21169 3.14695 5.27494 0.437011C5.0879 0.571451 4.91259 0.69602 4.71423 0.816978C7.10514 2.90117 9.29497 5.26972 11.6148 7.45976C12.8657 8.63929 14.1518 9.78924 15.5085 10.8567C16.6032 11.7074 17.7791 12.5358 19.053 13.0285C19.5349 13.2213 19.709 12.4763 19.2384 12.297C18.0333 11.8385 16.9378 11.0345 15.8888 10.2143C14.5204 9.15673 13.246 7.99692 11.9838 6.80391C9.67524 4.62735 7.48502 2.28214 5.09412 0.197949C4.80941 -0.0457219 4.42324 0.256364 4.5334 0.577927C5.44827 3.21422 6.15424 5.9113 6.69853 8.60639C6.98612 10.0675 7.20459 11.5178 7.3305 12.9769C7.42593 14.1855 7.46318 15.4201 7.25908 16.5816C7.1947 16.9811 7.80042 17.3688 7.96906 16.9506C9.11212 14.193 10.5071 11.5686 11.7989 8.89293C13.0908 6.21722 14.4638 3.51918 15.332 0.624759C15.4178 0.322297 15.0195 -0.032858 14.7512 0.123925C14.1097 0.5029 13.4798 0.872021 12.8383 1.251C12.6868 1.33251 12.5806 1.46794 12.4517 1.57642C12.1698 1.85978 11.8766 2.12966 11.5724 2.36271C10.9403 2.87188 10.2515 3.31364 9.55174 3.71858C6.81177 5.26569 3.71324 6.14794 0.939674 7.63126C0.660092 7.77456 0.721847 8.22894 1.05457 8.36314C4.08462 9.51798 7.18921 10.3569 10.2833 11.1356C13.2277 11.8791 16.1956 12.6029 19.1565 13.0565C19.6177 13.1055 19.5844 12.328 19.1005 12.2519Z" fill="#58CC02"/>
</svg>
