<svg width="39" height="35" viewBox="0 0 39 35" fill="none" xmlns="http://www.w3.org/2000/svg">
<path d="M37.7444 24.9482C31.7931 24.0368 25.8506 22.6052 19.9562 21.0863C13.7818 19.5235 7.56304 17.8115 1.49454 15.5067C1.58003 15.9942 1.64179 16.5018 1.72728 16.9893C7.34582 13.9845 13.5997 12.1699 19.1732 9.06319C20.5195 8.30281 21.8436 7.46786 23.0759 6.52365C23.6684 6.07152 24.2142 5.61203 24.7607 5.10528C25.0937 4.77832 25.4061 4.2822 25.8309 4.06449C27.1305 3.29678 28.4301 2.52906 29.7527 1.78866C29.3603 1.46624 28.9687 1.09655 28.5763 0.774129C26.843 6.52294 24.1334 11.8813 21.5655 17.1671C18.9485 22.5874 16.1227 27.9038 13.8072 33.49C14.2945 33.7325 14.7581 33.995 15.2454 34.2375C16.1751 28.9787 15.2188 23.1629 14.1858 17.738C13.1093 12.1166 11.6348 6.50378 9.7372 1.01412C9.35831 1.28646 9.00318 1.53881 8.60135 1.78384C13.4447 6.00588 17.8808 10.804 22.5802 15.2404C25.1143 17.6299 27.7195 19.9594 30.4679 22.1218C32.6854 23.8451 35.0675 25.5232 37.6481 26.5213C38.6243 26.9118 38.9769 25.4026 38.0237 25.0395C35.5823 24.1107 33.3632 22.4819 31.2382 20.8205C28.4661 18.6781 25.8846 16.3286 23.3276 13.9119C18.6511 9.50269 14.2143 4.75188 9.3709 0.529841C8.79416 0.0362247 8.01187 0.648175 8.23503 1.29958C10.0883 6.64004 11.5184 12.1037 12.621 17.5632C13.2036 20.5231 13.6462 23.461 13.9013 26.4168C14.0946 28.8652 14.17 31.3661 13.7566 33.7191C13.6262 34.5283 14.8532 35.3137 15.1948 34.4666C17.5104 28.8804 20.3362 23.564 22.9532 18.1437C25.5701 12.7234 28.3516 7.25781 30.1102 1.39445C30.2842 0.78174 29.4772 0.062285 28.9338 0.379886C27.6342 1.1476 26.3583 1.89534 25.0587 2.66305C24.7517 2.82817 24.5366 3.10252 24.2756 3.32227C23.7045 3.89628 23.1105 4.443 22.4943 4.91511C21.2137 5.94656 19.8184 6.84145 18.4009 7.66176C12.8504 10.7958 6.57358 12.583 0.955042 15.5879C0.388678 15.8782 0.513778 16.7986 1.18779 17.0705C7.32591 19.4099 13.615 21.1093 19.8828 22.6868C25.8476 24.193 31.8598 25.6592 37.8577 26.578C38.792 26.6774 38.7245 25.1022 37.7444 24.9482Z" fill="#58CC02"/>
</svg>
