<svg width="29" height="31" viewBox="0 0 29 31" fill="none" xmlns="http://www.w3.org/2000/svg">
<path id="Vector" d="M12.612 9.52906C12.5569 7.45807 12.5018 5.01055 13.6031 3.19058C14.0987 2.31198 14.8146 2.37473 15.4754 2.81403C16.4115 3.37885 17.0173 4.69676 17.2926 6.01466C17.7331 8.0229 17.3476 10.1566 16.5767 11.9766C17.2926 12.3532 18.0084 12.6669 18.7243 13.0435C19.0547 10.7842 20.3212 8.77598 21.9732 7.45807C23.3499 6.32844 25.0569 5.76362 26.1032 7.64634C27.9203 11.098 23.5701 17.1855 20.2661 15.4283C19.9357 16.2441 19.6604 17.0599 19.33 17.8758C21.1472 18.3778 22.634 19.884 23.6802 21.6412C24.5613 23.2101 25.167 25.4067 23.9556 26.9128C21.0921 30.4272 15.145 26.5991 16.026 22.0178C15.2551 22.0178 14.5393 22.0178 13.7684 22.0178C14.3741 23.9005 14.0437 25.7832 12.7771 27.1639C11.4005 28.6073 9.74852 27.6659 8.59214 26.348C6.94016 24.4653 7.38071 19.9468 10.134 19.884C9.74855 19.4447 9.36303 19.0054 8.97757 18.5661C8.97757 18.6916 8.97757 18.8171 8.97757 18.9427C9.19784 18.5661 9.36309 18.1896 9.58335 17.813C6.27939 20.0723 1.65383 16.2441 2.47982 11.9766C2.81022 10.1566 4.0767 9.08976 5.67361 9.21527C7.38066 9.27803 8.86747 10.9725 9.41813 12.6669C9.96879 14.2986 12.2265 13.6083 11.6758 11.9766C10.6846 8.96426 8.53704 6.8305 5.67361 6.51671C2.81018 6.20293 0.607553 8.77598 0.111959 11.8511C-0.493767 15.3655 1.43358 18.5661 4.07675 20.1351C5.34327 20.8881 6.83004 21.2647 8.26175 21.0764C9.58334 20.8881 11.3454 20.3861 11.3454 18.5661C11.3454 17.8758 10.7948 17.1854 10.1891 17.2482C5.23312 17.3737 3.96661 24.9046 7.16043 28.4818C9.08774 30.6155 11.841 31.4314 14.0987 29.4859C16.2463 27.6032 17.0723 24.2143 16.1362 21.3902C15.7507 20.2606 14.1538 19.9468 13.8785 21.3902C13.2727 24.5908 14.7044 27.5404 16.9071 29.4231C19.33 31.5569 22.7441 31.4941 25.167 29.4231C30.2881 25.0301 24.7815 16.6834 20.156 15.3655C18.8895 14.9889 18.0084 17.1227 19.2199 17.813C24.5062 20.6371 30.8939 12.7924 28.4709 6.89324C27.1494 3.69262 24.341 3.19058 21.7529 4.69675C19.275 6.14017 17.1274 9.27805 16.6318 12.4159C16.4115 13.7966 18.1736 14.9262 18.7793 13.4828C20.4864 9.40353 20.7617 2.87678 16.6318 0.492006C15.145 -0.386596 13.3829 -0.072798 12.2265 1.30786C10.4644 3.44161 10.3543 6.89326 10.4644 9.65458C10.2992 11.2235 12.667 11.2235 12.612 9.52906Z" fill="#58CC02"/>
</svg>
